# xmcd
#
# Track frame offsets:
#	150
#	17892
#	32584
#	44175
#	53402
#	67077
#	80967
#	91404
#	102949
#	116406
#	128126
#	145556
#
# Disc length: 2143 seconds
#
# Revision: 1
# Processed by: cddbd v1.4PL0 Copyright (c) Steve Scherf et al.
# Submitted via: dBpowerAMP V4.0
#
DISCID=a4085d0c
DTITLE=Kenny Rogers - The Great Kenny Rogers - Disc 3
DYEAR=1900
DGENRE=Country
TTITLE0=Something's Burning
TTITLE1=All God's Lonely Children
TTITLE2=What Am I Gonna Do
TTITLE3=Camptown Ladies
TTITLE4=Molly
TTITLE5=But You Know I Love You
TTITLE6=New Design
TTITLE7=Just Remember You're My Sunshine
TTITLE8=A Stranger In My Place
TTITLE9=Someone Who Cares
TTITLE10=School Teacher
TTITLE11=Just Dropped In (To See What Condition My Condition Was In)
EXTD=3 CD Set
EXTT0=
EXTT1=
EXTT2=
EXTT3=
EXTT4=
EXTT5=
EXTT6=
EXTT7=
EXTT8=
EXTT9=
EXTT10=
EXTT11=
PLAYORDER=
